<?xml version="1.0" encoding="UTF-8" standalone="no"?>
<svg width="102px" height="102px" viewBox="0 0 102 102" version="1.1" xmlns="http://www.w3.org/2000/svg" xmlns:xlink="http://www.w3.org/1999/xlink">
    <!-- Generator: Sketch 39.1 (31720) - http://www.bohemiancoding.com/sketch -->
    <title>education_icon</title>
    <desc>Created with Sketch.</desc>
    <defs>
        <polygon id="path-1" points="50.4849033 0 100.969807 25.444968 50.4849033 50.8899361 0 25.444968"></polygon>
        <mask id="mask-2" maskContentUnits="userSpaceOnUse" maskUnits="objectBoundingBox" x="0" y="0" width="100.969807" height="50.8899361" fill="white">
            <use xlink:href="#path-1"></use>
        </mask>
        <path d="M23.0904605,36.4193182 L23.0904605,52.3199562 C23.0904605,59.907839 35.3157383,66.0590334 50.3963828,66.0590334 C65.4770272,66.0590334 77.702305,59.907839 77.702305,52.3199562 L77.702305,36.3820043" id="path-3"></path>
        <mask id="mask-4" maskContentUnits="userSpaceOnUse" maskUnits="objectBoundingBox" x="0" y="0" width="54.6118445" height="29.6770291" fill="white">
            <use xlink:href="#path-3"></use>
        </mask>
        <path d="M23.0904605,45.0206537 C23.0904605,52.6085365 35.3157383,58.7597309 50.3963828,58.7597309 L50.3963828,58.7597309 C65.4770272,58.7597309 77.702305,52.6085365 77.702305,45.0206537" id="path-5"></path>
        <mask id="mask-6" maskContentUnits="userSpaceOnUse" maskUnits="objectBoundingBox" x="0" y="0" width="54.6118445" height="13.7390772" fill="white">
            <use xlink:href="#path-5"></use>
        </mask>
        <ellipse id="path-7" cx="50.1677632" cy="25.6667565" rx="4.98355263" ry="2.74110991"></ellipse>
        <mask id="mask-8" maskContentUnits="userSpaceOnUse" maskUnits="objectBoundingBox" x="0" y="0" width="9.96710526" height="5.48221983" fill="white">
            <use xlink:href="#path-7"></use>
        </mask>
        <ellipse id="path-9" cx="13.3480136" cy="59.4198994" rx="3.16971906" ry="3.16989943"></ellipse>
        <mask id="mask-10" maskContentUnits="userSpaceOnUse" maskUnits="objectBoundingBox" x="0" y="0" width="6.33943812" height="6.33979885" fill="white">
            <use xlink:href="#path-9"></use>
        </mask>
        <path d="M11.2853037,60.9375 C11.2853037,60.9375 11.8300447,62.0276331 13.0976005,62.0276331 C14.3651562,62.0276331 14.8920525,60.9375 14.8920525,60.9375 L17.5827978,74.8922414 L8.6124031,74.8922414 L11.2853037,60.9375 Z" id="path-11"></path>
        <mask id="mask-12" maskContentUnits="userSpaceOnUse" maskUnits="objectBoundingBox" x="0" y="0" width="8.97039474" height="13.9547414" fill="white">
            <use xlink:href="#path-11"></use>
        </mask>
    </defs>
    <g id="Final-1" stroke="none" stroke-width="1" fill="none" fill-rule="evenodd">
        <g id="Education-icon" transform="translate(0.000000, 13.000000)" stroke="#56BFDF">
            <g id="education">
                <use id="Rectangle-6-Copy" mask="url(#mask-2)" stroke-width="4" xlink:href="#path-1"></use>
                <use id="Combined-Shape-Copy-5" mask="url(#mask-4)" stroke-width="4" xlink:href="#path-3"></use>
                <use id="Combined-Shape-Copy-6" mask="url(#mask-6)" stroke-width="2" xlink:href="#path-5"></use>
                <use id="Oval-Copy" mask="url(#mask-8)" stroke-width="2" xlink:href="#path-7"></use>
                <polyline id="Line-Copy-32" stroke-linecap="square" points="45.9022185 26.248204 13.3945653 31.0131074 13.3945653 56.821441"></polyline>
                <use id="Oval-2-Copy" mask="url(#mask-10)" stroke-width="2" xlink:href="#path-9"></use>
                <use id="Rectangle-9-Copy" mask="url(#mask-12)" stroke-width="2" xlink:href="#path-11"></use>
            </g>
        </g>
    </g>
</svg>